<svg width="519" height="133" viewBox="0 0 519 133" fill="none" xmlns="http://www.w3.org/2000/svg">
<g opacity="0.8" filter="url(#filter0_dd_624_164)">
<path d="M75.2345 127.119C77.3662 127.119 79.0944 125.391 79.0944 123.26C79.0944 121.129 77.3662 119.401 75.2345 119.401C73.1027 119.401 71.3745 121.129 71.3745 123.26C71.3745 125.391 73.1027 127.119 75.2345 127.119Z" fill="#D9D9D9"/>
<path d="M90.6754 124.914C92.8071 124.914 94.5353 123.187 94.5353 121.056C94.5353 118.924 92.8071 117.197 90.6754 117.197C88.5436 117.197 86.8154 118.924 86.8154 121.056C86.8154 123.187 88.5436 124.914 90.6754 124.914Z" fill="#D9D9D9"/>
<path d="M105.012 121.605C107.144 121.605 108.872 119.878 108.872 117.747C108.872 115.616 107.144 113.888 105.012 113.888C102.88 113.888 101.152 115.616 101.152 117.747C101.152 119.878 102.88 121.605 105.012 121.605Z" fill="#D9D9D9"/>
<path d="M114.386 116.093C116.213 116.093 117.695 114.612 117.695 112.785C117.695 110.959 116.213 109.478 114.386 109.478C112.559 109.478 111.078 110.959 111.078 112.785C111.078 114.612 112.559 116.093 114.386 116.093Z" fill="#CACACA"/>
<path d="M96.7394 106.171C97.9575 106.171 98.945 105.184 98.945 103.966C98.945 102.748 97.9575 101.761 96.7394 101.761C95.5212 101.761 94.5337 102.748 94.5337 103.966C94.5337 105.184 95.5212 106.171 96.7394 106.171Z" fill="#797979"/>
<path d="M86.2646 103.966C87.1782 103.966 87.9189 103.225 87.9189 102.312C87.9189 101.398 87.1782 100.658 86.2646 100.658C85.351 100.658 84.6104 101.398 84.6104 102.312C84.6104 103.225 85.351 103.966 86.2646 103.966Z" fill="#676767"/>
<path d="M60.8974 128.221C58.7656 128.221 57.0374 126.493 57.0374 124.362C57.0374 122.231 58.7656 120.504 60.8974 120.504C63.0292 120.504 64.7573 122.231 64.7573 124.362C64.7573 126.493 63.0292 128.221 60.8974 128.221Z" fill="#D9D9D9"/>
<path d="M46.5605 127.74C44.4287 127.74 42.7005 126.012 42.7005 123.881C42.7005 121.75 44.4287 120.022 46.5605 120.022C48.6923 120.022 50.4204 121.75 50.4204 123.881C50.4204 126.012 48.6923 127.74 46.5605 127.74Z" fill="#D9D9D9"/>
<path d="M31.121 126.016C28.9892 126.016 27.2611 124.289 27.2611 122.158C27.2611 120.026 28.9892 118.299 31.121 118.299C33.2528 118.299 34.981 120.026 34.981 122.158C34.981 124.289 33.2528 126.016 31.121 126.016Z" fill="#D9D9D9"/>
<path d="M16.7856 122.709C14.6538 122.709 12.9256 120.982 12.9256 118.85C12.9256 116.719 14.6538 114.992 16.7856 114.992C18.9174 114.992 20.6455 116.719 20.6455 118.85C20.6455 120.982 18.9174 122.709 16.7856 122.709Z" fill="#D9D9D9"/>
<path d="M6.30867 116.093C4.48142 116.093 3.00015 114.612 3.00015 112.786C3.00015 110.959 4.48142 109.478 6.30867 109.478C8.13591 109.478 9.61719 110.959 9.61719 112.786C9.61719 114.612 8.13591 116.093 6.30867 116.093Z" fill="#CACACA"/>
<path d="M23.954 106.171C22.7358 106.171 21.7483 105.184 21.7483 103.966C21.7483 102.749 22.7358 101.761 23.954 101.761C25.1722 101.761 26.1597 102.749 26.1597 103.966C26.1597 105.184 25.1722 106.171 23.954 106.171Z" fill="#797979"/>
<path d="M33.3267 103.967C32.4131 103.967 31.6724 103.226 31.6724 102.313C31.6724 101.399 32.4131 100.659 33.3267 100.659C34.2403 100.659 34.981 101.399 34.981 102.313C34.981 103.226 34.2403 103.967 33.3267 103.967Z" fill="#676767"/>
<path d="M106.115 109.479C107.638 109.479 108.872 108.245 108.872 106.723C108.872 105.201 107.638 103.967 106.115 103.967C104.592 103.967 103.358 105.201 103.358 106.723C103.358 108.245 104.592 109.479 106.115 109.479Z" fill="#B0B0B0"/>
<path d="M14.5788 109.479C13.0561 109.479 11.8217 108.245 11.8217 106.722C11.8217 105.2 13.0561 103.966 14.5788 103.966C16.1015 103.966 17.3359 105.2 17.3359 106.722C17.3359 108.245 16.1015 109.479 14.5788 109.479Z" fill="#B0B0B0"/>
</g>
<g filter="url(#filter1_dd_624_164)">
<path d="M79.1913 55.6748C82.6666 33.0769 72.0048 16.2252 64.0761 8.43812C63.0373 7.41748 61.0497 8.31855 60.6647 9.72395C59.9946 12.1711 58.5953 15.4094 56.108 19.3275C43.7799 38.7329 19.1728 52.6379 19.1548 75.6272C19.1417 94.1825 35.5054 105.925 48.489 111.275C49.8489 111.837 51.1253 110.387 50.5617 109.029C44.5418 94.5314 50.7534 87.1473 57.9284 80.0384C59.0131 78.9639 60.9531 79.8484 60.9989 81.375C61.3807 94.1547 68.02 105.671 75.1573 110.033C75.6439 110.33 76.2682 110.305 76.7548 110.011C107.424 91.4225 99.9593 60.7395 90.0169 46.2956C89.368 45.3537 87.9851 45.4438 87.3953 46.4233C83.9675 52.1203 82.2536 55.2178 80.8314 56.8001C80.0367 57.6829 79.0111 56.8492 79.1913 55.6748Z" fill="url(#paint0_linear_624_164)"/>
</g>
<g filter="url(#filter2_f_624_164)">
<path d="M41.979 47.0687L29.7197 59.2669L39.0756 46.7297L48.4331 37.5814L56.1767 28.0941L63.2747 14.5397L57.4662 30.1269L51.6593 39.6142L41.979 47.0687Z" fill="#FFC977" fill-opacity="0.7"/>
</g>
<g filter="url(#filter3_f_624_164)">
<path d="M77.9366 66.0433L71.353 72.3119L76.3783 65.8697L81.402 61.1686L85.5605 56.2923L89.3733 49.3275L86.2536 57.3373L83.1355 62.2137L77.9366 66.0433Z" fill="#FFC977"/>
</g>
<path d="M165 100.851V35.9287H210.791V50.1312H182.681V61.2896H207.993V75.4899H182.681V100.851H165ZM217.547 100.851V52.1598H235.101V100.851H217.547ZM226.323 47.0871C223.95 47.0871 221.915 46.3061 220.218 44.7416C218.524 43.1772 217.675 41.2959 217.675 39.0999C217.675 36.9017 218.524 35.0204 220.218 33.456C221.915 31.8916 223.95 31.1105 226.323 31.1105C228.72 31.1105 230.755 31.8916 232.43 33.456C234.125 35.0204 234.973 36.9017 234.973 39.0999C234.973 41.2959 234.125 43.1772 232.43 44.7416C230.755 46.3061 228.72 47.0871 226.323 47.0871ZM244.044 100.851V52.1598H261.089V61.4168H261.597C262.488 57.9912 263.896 55.4872 265.826 53.9027C267.776 52.3182 270.055 51.526 272.663 51.526C273.426 51.526 274.178 51.5885 274.921 51.7157C275.683 51.8206 276.415 51.979 277.115 52.191V67.121C276.244 66.8264 275.174 66.6033 273.903 66.456C272.631 66.3087 271.539 66.235 270.628 66.235C268.911 66.235 267.364 66.6256 265.985 67.4067C264.628 68.1677 263.558 69.2456 262.772 70.6404C261.989 72.0151 261.597 73.6309 261.597 75.4899V100.851H244.044ZM303.475 101.739C298.261 101.739 293.766 100.746 289.994 98.7574C286.24 96.7512 283.348 93.8768 281.313 90.1364C279.298 86.3738 278.291 81.8725 278.291 76.6325C278.291 71.6022 279.309 67.2058 281.344 63.4454C283.379 59.6828 286.251 56.7548 289.961 54.6637C293.672 52.5704 298.049 51.526 303.095 51.526C306.784 51.526 310.122 52.0951 313.11 53.2377C316.099 54.3781 318.655 56.0384 320.775 58.2143C322.893 60.3702 324.527 62.9902 325.671 66.0766C326.815 69.1608 327.388 72.6378 327.388 76.5053V80.5625H283.76V70.9261H311.234C311.214 69.5312 310.854 68.306 310.153 67.2482C309.475 66.1703 308.552 65.3357 307.386 64.7443C306.242 64.1306 304.939 63.8248 303.475 63.8248C302.056 63.8248 300.751 64.1306 299.564 64.7443C298.378 65.3357 297.424 66.1592 296.703 67.217C296.003 68.2726 295.631 69.5089 295.591 70.9261V81.3235C295.591 82.8879 295.918 84.2827 296.576 85.5079C297.232 86.7331 298.176 87.695 299.405 88.3935C300.634 89.0898 302.119 89.4379 303.858 89.4379C305.065 89.4379 306.168 89.2705 307.164 88.9313C308.183 88.5943 309.052 88.1078 309.773 87.474C310.493 86.8179 311.022 86.0368 311.362 85.1285H327.388C326.838 88.5095 325.532 91.4464 323.477 93.9392C321.42 96.4119 318.696 98.3357 315.304 99.7104C311.935 101.063 307.991 101.739 303.475 101.739ZM379.197 68.0092H363.043C362.958 67.0161 362.609 66.1592 361.993 65.4428C361.38 64.7242 360.583 64.1729 359.609 63.7936C358.655 63.3919 357.594 63.191 356.428 63.191C354.923 63.191 353.63 63.4655 352.548 64.0145C351.467 64.5657 350.939 65.3468 350.959 66.36C350.939 67.0786 351.245 67.7459 351.881 68.3574C352.539 68.9711 353.8 69.4464 355.665 69.7857L365.586 71.5598C370.589 72.4681 374.31 74.0013 376.748 76.1571C379.208 78.2906 380.448 81.1539 380.469 84.7469C380.448 88.2127 379.41 91.2255 377.352 93.7808C375.317 96.3182 372.53 98.2821 368.989 99.6769C365.47 101.052 361.454 101.739 356.938 101.739C349.475 101.739 343.634 100.217 339.416 97.173C335.219 94.1312 332.877 90.1141 332.389 85.1285H349.815C350.048 86.6706 350.811 87.8646 352.105 88.7104C353.419 89.5339 355.071 89.9467 357.064 89.9467C358.675 89.9467 360.001 89.6722 361.039 89.121C362.101 88.572 362.64 87.7909 362.66 86.7755C362.64 85.8471 362.174 85.1062 361.261 84.5572C360.372 84.0082 358.973 83.5641 357.064 83.2249L348.416 81.7029C343.433 80.837 339.703 79.19 337.223 76.7597C334.742 74.3294 333.513 71.2005 333.533 67.3754C333.513 63.9944 334.402 61.1312 336.204 58.7857C338.028 56.4178 340.625 54.6213 343.994 53.3961C347.388 52.1486 351.404 51.526 356.047 51.526C363.106 51.526 368.671 52.9833 372.741 55.9001C376.833 58.8169 378.984 62.8518 379.197 68.0092ZM387.193 100.851V52.1598H404.747V100.851H387.193ZM395.971 47.0871C393.596 47.0871 391.561 46.3061 389.864 44.7416C388.169 43.1772 387.321 41.2959 387.321 39.0999C387.321 36.9017 388.169 35.0204 389.864 33.456C391.561 31.8916 393.596 31.1105 395.971 31.1105C398.366 31.1105 400.401 31.8916 402.076 33.456C403.773 35.0204 404.619 36.9017 404.619 39.0999C404.619 41.2959 403.773 43.1772 402.076 44.7416C400.401 46.3061 398.366 47.0871 395.971 47.0871ZM431.371 101.485C427.894 101.485 424.693 100.576 421.767 98.7574C418.863 96.9409 416.531 94.1825 414.771 90.4846C413.034 86.7867 412.163 82.1269 412.163 76.5053C412.163 70.6292 413.077 65.8534 414.899 62.1756C416.743 58.5 419.116 55.8041 422.022 54.0924C424.948 52.3807 428.022 51.526 431.243 51.526C433.661 51.526 435.781 51.9478 437.603 52.7936C439.425 53.6171 440.952 54.7262 442.181 56.121C443.412 57.4957 444.343 59.0066 444.979 60.6558H445.234V35.9287H462.788V100.851H445.362V92.8613H444.979C444.301 94.5105 443.327 95.9901 442.056 97.3001C440.804 98.5901 439.277 99.6144 437.475 100.375C435.696 101.114 433.661 101.485 431.371 101.485ZM437.858 88.0431C439.468 88.0431 440.847 87.5789 441.991 86.6483C443.157 85.6976 444.048 84.3675 444.661 82.6558C445.299 80.9218 445.617 78.8731 445.617 76.5053C445.617 74.0951 445.299 72.0352 444.661 70.3235C444.048 68.5917 443.157 67.2705 441.991 66.36C440.847 65.4316 439.468 64.9652 437.858 64.9652C436.246 64.9652 434.867 65.4316 433.723 66.36C432.6 67.2705 431.731 68.5917 431.115 70.3235C430.522 72.0352 430.227 74.0951 430.227 76.5053C430.227 78.9133 430.522 80.9843 431.115 82.7183C431.731 84.43 432.6 85.7512 433.723 86.6818C434.867 87.5901 436.246 88.0431 437.858 88.0431ZM494.809 101.739C489.593 101.739 485.1 100.746 481.326 98.7574C477.574 96.7512 474.681 93.8768 472.644 90.1364C470.632 86.3738 469.624 81.8725 469.624 76.6325C469.624 71.6022 470.643 67.2058 472.678 63.4454C474.713 59.6828 477.585 56.7548 481.294 54.6637C485.004 52.5704 489.383 51.526 494.428 51.526C498.116 51.526 501.456 52.0951 504.444 53.2377C507.433 54.3781 509.987 56.0384 512.107 58.2143C514.227 60.3702 515.859 62.9902 517.005 66.0766C518.149 69.1608 518.722 72.6378 518.722 76.5053V80.5625H475.093V70.9261H502.568C502.546 69.5312 502.185 68.306 501.487 67.2482C500.809 66.1703 499.886 65.3357 498.72 64.7443C497.576 64.1306 496.271 63.8248 494.809 63.8248C493.39 63.8248 492.085 64.1306 490.898 64.7443C489.712 65.3357 488.756 66.1592 488.035 67.217C487.336 68.2726 486.965 69.5089 486.922 70.9261V81.3235C486.922 82.8879 487.251 84.2827 487.91 85.5079C488.565 86.7331 489.51 87.695 490.739 88.3935C491.968 89.0898 493.452 89.4379 495.19 89.4379C496.398 89.4379 497.502 89.2705 498.498 88.9313C499.515 88.5943 500.385 88.1078 501.104 87.474C501.825 86.8179 502.355 86.0368 502.696 85.1285H518.722C518.171 88.5095 516.866 91.4464 514.811 93.9392C512.754 96.4119 510.03 98.3357 506.638 99.7104C503.267 101.063 499.324 101.739 494.809 101.739Z" fill="white"/>
<defs>
<filter id="filter0_dd_624_164" x="0" y="94.6581" width="121.695" height="37.563" filterUnits="userSpaceOnUse" color-interpolation-filters="sRGB">
<feFlood flood-opacity="0" result="BackgroundImageFix"/>
<feColorMatrix in="SourceAlpha" type="matrix" values="0 0 0 0 0 0 0 0 0 0 0 0 0 0 0 0 0 0 127 0" result="hardAlpha"/>
<feOffset dy="-3"/>
<feGaussianBlur stdDeviation="1.5"/>
<feComposite in2="hardAlpha" operator="out"/>
<feColorMatrix type="matrix" values="0 0 0 0 0 0 0 0 0 0 0 0 0 0 0 0 0 0 0.25 0"/>
<feBlend mode="normal" in2="BackgroundImageFix" result="effect1_dropShadow_624_164"/>
<feColorMatrix in="SourceAlpha" type="matrix" values="0 0 0 0 0 0 0 0 0 0 0 0 0 0 0 0 0 0 127 0" result="hardAlpha"/>
<feOffset dx="2" dy="2"/>
<feGaussianBlur stdDeviation="1"/>
<feComposite in2="hardAlpha" operator="out"/>
<feColorMatrix type="matrix" values="0 0 0 0 1 0 0 0 0 1 0 0 0 0 1 0 0 0 0.25 0"/>
<feBlend mode="normal" in2="effect1_dropShadow_624_164" result="effect2_dropShadow_624_164"/>
<feBlend mode="normal" in="SourceGraphic" in2="effect2_dropShadow_624_164" result="shape"/>
</filter>
<filter id="filter1_dd_624_164" x="15.1548" y="0.00012207" width="87.54" height="119.399" filterUnits="userSpaceOnUse" color-interpolation-filters="sRGB">
<feFlood flood-opacity="0" result="BackgroundImageFix"/>
<feColorMatrix in="SourceAlpha" type="matrix" values="0 0 0 0 0 0 0 0 0 0 0 0 0 0 0 0 0 0 127 0" result="hardAlpha"/>
<feOffset dy="4"/>
<feGaussianBlur stdDeviation="2"/>
<feComposite in2="hardAlpha" operator="out"/>
<feColorMatrix type="matrix" values="0 0 0 0 0.991667 0 0 0 0 0.570208 0 0 0 0 0.570208 0 0 0 0.25 0"/>
<feBlend mode="normal" in2="BackgroundImageFix" result="effect1_dropShadow_624_164"/>
<feColorMatrix in="SourceAlpha" type="matrix" values="0 0 0 0 0 0 0 0 0 0 0 0 0 0 0 0 0 0 127 0" result="hardAlpha"/>
<feOffset dy="-4"/>
<feGaussianBlur stdDeviation="2"/>
<feComposite in2="hardAlpha" operator="out"/>
<feColorMatrix type="matrix" values="0 0 0 0 1 0 0 0 0 0.805 0 0 0 0 0.625 0 0 0 0.25 0"/>
<feBlend mode="normal" in2="effect1_dropShadow_624_164" result="effect2_dropShadow_624_164"/>
<feBlend mode="normal" in="SourceGraphic" in2="effect2_dropShadow_624_164" result="shape"/>
</filter>
<filter id="filter2_f_624_164" x="24.7197" y="9.53967" width="43.5552" height="54.7273" filterUnits="userSpaceOnUse" color-interpolation-filters="sRGB">
<feFlood flood-opacity="0" result="BackgroundImageFix"/>
<feBlend mode="normal" in="SourceGraphic" in2="BackgroundImageFix" result="shape"/>
<feGaussianBlur stdDeviation="2.5" result="effect1_foregroundBlur_624_164"/>
</filter>
<filter id="filter3_f_624_164" x="66.353" y="44.3275" width="28.0205" height="32.9844" filterUnits="userSpaceOnUse" color-interpolation-filters="sRGB">
<feFlood flood-opacity="0" result="BackgroundImageFix"/>
<feBlend mode="normal" in="SourceGraphic" in2="BackgroundImageFix" result="shape"/>
<feGaussianBlur stdDeviation="2.5" result="effect1_foregroundBlur_624_164"/>
</filter>
<linearGradient id="paint0_linear_624_164" x1="59.4293" y1="38.3382" x2="58.9249" y2="112.69" gradientUnits="userSpaceOnUse">
<stop stop-color="#E32626"/>
<stop offset="0.817708" stop-color="#FF7A00"/>
</linearGradient>
</defs>
</svg>
